<svg xmlns="http://www.w3.org/2000/svg" viewBox="0 0 64 64" width="64" height="64">
  <path d="M32 8c-2 0-4 1-6 3l-4-6c-1-1.5-3-1-3 1v8c-4 3-7 8-7 14 0 10 9 18 20 18s20-8 20-18c0-6-3-11-7-14v-8c0-2-2-2.5-3-1l-4 6c-2-2-4-3-6-3z" fill="#FF6B9A"/>
  <circle cx="25" cy="26" r="3" fill="white"/>
  <circle cx="39" cy="26" r="3" fill="white"/>
  <circle cx="25" cy="27" r="1.5" fill="#1E293B"/>
  <circle cx="39" cy="27" r="1.5" fill="#1E293B"/>
  <path d="M30 33c0 1-1 2-2 2h4c-1 0-2-1-2-2" fill="#FF3D7A"/>
  <path d="M28 35c2 2 6 2 8 0" stroke="#1E293B" fill="none" stroke-width="1" stroke-linecap="round"/>
</svg>
